{"title":"Stray.Dogs.2013.SUBBED.DVDRip.x264.HORiZON-ArtSubs","uid":11356164,"size":2196726078,"categoryP":"video","categoryS":"movies","magnet":"?xt=urn:btih:41c24e57a41d4225190103c1bb344754adaeb832&amp;dn=Stray.Dogs.2013.SUBBED.DVDRip.x264.HORiZON-ArtSubs&amp;tr=udp%3A%2F%2Ftracker.openbittorrent.com%3A80&amp;tr=udp%3A%2F%2Fopen.demonii.com%3A1337&amp;tr=udp%3A%2F%2Ftracker.coppersurfer.tk%3A6969&amp;tr=udp%3A%2F%2Fexodus.desync.com%3A6969","seeders":24,"leechers":1,"uploader":"lletaif","files":1,"time":1414943874,"description":"Title:\nStray Dogs Aka Jiao you\n\n\n\nCountry:\nChina/Taiwan, 2013\n\n\nDirector:\nTsai Ming-Liang\n\n\nLanguage:\nMandarin\n\n\nSubtitles:\nPortuguese\n\n\nIMDB: &lt;a href=&quot;\nhttp://www.imdb.com/title/tt3119416/?ref_=nv_sr_1&quot; rel=&quot;nofollow&quot; target=&quot;_NEW&quot;&gt;\nhttp://www.imdb.com/title/tt3119416/?ref_=nv_sr_1&lt;/a&gt;\n\n\nPlot:\nAn alcoholic man and his two young children barely survive in Taipei. They cross path with a lonely grocery clerk who might help them make a better life.\n\n\nTrivia:\n13 wins &amp; 15 nominations\n\nWin Silver Lion Best Picture Venice Film Festival 2013\n\n\n\nMedia Info:\n\nGeneral\nUnique ID                                : 197828098479536868358546657135778584123 (0x94D44E4D83F7FD54931AC2BB645BD63B)\nComplete name                            : Stray.Dogs.2013.SUBBED.DVDRip.x264.HORiZON-ArtSubs.mkv\nFormat                                   : Matroska\nFormat version                           : Version 2\nFile size                                : 2.05 GiB\nDuration                                 : 2h 16mn\nOverall bit rate                         : 2 152 Kbps\nMovie name                               : MY DVD.Title1\nEncoded date                             : UTC 2014-10-31 00:38:46\nWriting application                      : DVDFab 9.1.4.0\nWriting library                          : libebml v0.7.8 + libmatroska v0.8.1\n\nVideo\nID                                       : 1\nFormat                                   : AVC\nFormat/Info                              : Advanced Video Codec\nFormat profile                           : &lt;a class=&quot;__cf_email__&quot; href=&quot;/cdn-cgi/l/email-protection&quot; data-cfemail=&quot;eca4858b84aca0d8c2dd&quot;&gt;[email&amp;#160;protected]&lt;/a&gt;&lt;script cf-hash='f9e31' type=&quot;text/javascript&quot;&gt;\n/* &lt;![CDATA[ */!function(){try{var t=&quot;currentScript&quot;in document?document.currentScript:function(){for(var t=document.getElementsByTagName(&quot;script&quot;),e=t.length;e--;)if(t[e].getAttribute(&quot;cf-hash&quot;))return t[e]}();if(t&amp;&amp;t.previousSibling){var e,r,n,i,c=t.previousSibling,a=c.getAttribute(&quot;data-cfemail&quot;);if(a){for(e=&quot;&quot;,r=parseInt(a.substr(0,2),16),n=2;a.length-n;n+=2)i=parseInt(a.substr(n,2),16)^r,e+=String.fromCharCode(i);e=document.createTextNode(e),c.parentNode.replaceChild(e,c)}}}catch(u){}}();/* ]]&gt; */&lt;/script&gt;\nFormat settings, CABAC                   : Yes\nFormat settings, ReFrames                : 2 frames\nCodec ID                                 : V_MPEG4/ISO/AVC\nDuration                                 : 2h 16mn\nBit rate                                 : 1 917 Kbps\nWidth                                    : 720 pixels\nHeight                                   : 404 pixels\nDisplay aspect ratio                     : 16:9\nFrame rate mode                          : Constant\nFrame rate                               : 23.976 fps\nColor space                              : YUV\nChroma subsampling                       : 4:2:0\nBit depth                                : 8 bits\nScan type                                : Progressive\nBits/(Pixel*Frame)                       : 0.275\nStream size                              : 1.82 GiB (89%)\nWriting library                          : x264 core\nDefault                                  : Yes\nForced                                   : No\nColor primaries                          : BT.601 NTSC\nTransfer characteristics                 : BT.709\nMatrix coefficients                      : BT.601\n\nAudio\nID                                       : 2\nFormat                                   : AC-3\nFormat/Info                              : Audio Coding 3\nMode extension                           : CM (complete main)\nFormat settings, Endianness              : Big\nCodec ID                                 : A_AC3\nDuration                                 : 2h 16mn\nBit rate mode                            : Constant\nBit rate                                 : 192 Kbps\nChannel(s)                               : 2 channels\nChannel positions                        : Front: L R\nSampling rate                            : 48.0 KHz\nBit depth                                : 16 bits\nCompression mode                         : Lossy\nStream size                              : 187 MiB (9%)\nLanguage                                 : Portuguese\nDefault                                  : Yes\nForced                                   : No\n\nMenu\n00:05:00.000                             : en:(01)00:05:00:000\n00:09:59.000                             : en:(02)00:09:59:000\n00:14:58.000                             : en:(03)00:14:58:000\n00:19:58.000                             : en:(04)00:19:58:000\n00:24:57.000                             : en:(05)00:24:57:000\n00:29:57.000                             : en:(06)00:29:57:000\n00:34:56.000                             : en:(07)00:34:56:000\n00:39:56.000                             : en:(08)00:39:56:000\n00:44:55.000                             : en:(09)00:44:55:000\n00:49:54.000                             : en:(10)00:49:54:000\n00:54:53.000                             : en:(11)00:54:53:000\n00:59:53.000                             : en:(12)00:59:53:000\n01:04:52.000                             : en:(13)01:04:52:000\n01:09:51.000                             : en:(14)01:09:51:000\n01:14:50.000                             : en:(15)01:14:50:000\n01:19:49.000                             : en:(16)01:19:49:000\n01:24:48.000                             : en:(17)01:24:48:000\n01:29:48.000                             : en:(18)01:29:48:000\n01:34:47.000                             : en:(19)01:34:47:000\n01:39:46.000                             : en:(20)01:39:46:000\n01:44:45.000                             : en:(21)01:44:45:000\n01:49:44.000                             : en:(22)01:49:44:000\n01:54:44.000                             : en:(23)01:54:44:000\n01:59:43.000                             : en:(24)01:59:43:000\n02:04:43.000                             : en:(25)02:04:43:000\n02:09:42.000                             : en:(26)02:09:42:000\n02:14:41.000                             : en:(27)02:14:41:000\n02:15:48.000                             : en:(28)02:15:48:000","torrent":{"xt":"urn:btih:41c24e57a41d4225190103c1bb344754adaeb832","amp;dn":"Stray.Dogs.2013.SUBBED.DVDRip.x264.HORiZON-ArtSubs","amp;tr":["udp%3A%2F%2Ftracker.openbittorrent.com%3A80","udp%3A%2F%2Fopen.demonii.com%3A1337","udp%3A%2F%2Ftracker.coppersurfer.tk%3A6969","udp%3A%2F%2Fexodus.desync.com%3A6969"],"infoHash":"41c24e57a41d4225190103c1bb344754adaeb832","infoHashBuffer":{"type":"Buffer","data":[65,194,78,87,164,29,66,37,25,1,3,193,187,52,71,84,173,174,184,50]},"announce":[],"urlList":[]}}